<svg width="414" height="397" viewBox="0 0 414 397" fill="none" xmlns="http://www.w3.org/2000/svg">
<g id="gamer-colour 1" clip-path="url(#clip0)">
<g id="Layer 2">
<g id="vector">
<path id="Vector" d="M288.313 105.155C321.28 147.992 361.482 182.949 359.303 214.925C357.123 246.821 312.572 275.661 263.198 301.768C213.749 327.906 159.553 351.311 117.154 336.65C74.7551 321.988 44.137 269.105 35.2769 215.713C26.4168 162.321 39.1076 108.285 70.8372 65.7593C102.567 23.2332 153.177 -7.98195 191.429 1.81198C229.682 11.6059 255.346 62.2427 288.313 105.155Z" fill="#F2F2F2"/>
<path id="Vector_2" d="M224.603 217.873V351.911" stroke="#A4A4A4" stroke-width="3" stroke-linecap="round" stroke-linejoin="round"/>
<path id="Vector_3" d="M216.375 364.043C215.77 365.528 211.645 374.635 211.645 374.635L224.974 379.631L228.951 366.616L216.375 364.043Z" fill="#E49D75"/>
<path id="Vector_4" d="M292.699 351.166L295.44 361.116L283.442 366.889L275.53 358.789L292.699 351.166Z" fill="#E49D75"/>
<path id="Vector_5" d="M275.502 160.52C274.135 162.074 262.806 175.444 261.994 176.5C261.182 177.556 228.014 187.473 226.265 187.934C224.516 188.395 218.228 191.086 216.457 191.086C214.686 191.086 209.002 189.237 206.649 189.617C204.295 189.998 196.78 194.324 197.505 196.05C198.23 197.776 279.355 192.014 279.355 192.014L288.199 164.937L275.502 160.52Z" fill="#D38D6A"/>
<path id="Vector_6" d="M291.413 285.429L270.8 389.897" stroke="#E0E0E0" stroke-width="2" stroke-linecap="round" stroke-linejoin="round"/>
<path id="Vector_7" d="M367.378 114.959H414L369.787 285.429H284.341V274.332L332.183 243.079L367.378 114.959Z" fill="#C6C4C4"/>
<path id="Vector_8" d="M270.816 275.651C273.181 280.406 293.157 347.157 293.675 351.038C291.13 353.664 280.096 359.508 275.382 359.888C267.4 353.707 245.031 301.805 245.031 301.805C245.031 301.805 252.649 258.743 270.816 275.651Z" fill="#49CB65"/>
<path id="Vector_9" d="M367.013 212.062C368.746 214.089 374.353 243.996 375.187 251.731C376.467 263.889 352.508 281.698 318.686 281.698C307.521 281.698 270.555 279.248 259.934 275.302C259.39 281.912 232.613 364.348 229.578 367.334C224.592 368.615 217.22 365.951 215.378 364.118C213.536 362.284 228.172 248.402 232.27 241.048C236.367 233.693 319.857 228.166 319.857 228.166L367.013 212.062Z" fill="#53E874"/>
<path id="Vector_10" d="M309.057 126.699C324.734 135.7 301.292 175.015 298.328 176.017C293.604 175.481 277.153 166.02 274.069 159.056C273.404 154.778 295.669 119.007 309.057 126.699Z" fill="#FFC78E"/>
<path id="Vector_11" d="M317.743 110.381C343.947 110.381 369.182 208.798 368.147 212.738C366.027 220.816 323.099 235.59 316.212 229.243C298.791 213.204 266.664 110.381 317.743 110.381Z" fill="#FFD98E"/>
<path id="Vector_12" d="M364.861 285.429L385.474 389.897" stroke="#D5CDCD" stroke-width="2" stroke-linecap="round" stroke-linejoin="round"/>
<path id="Vector_13" d="M225.982 380.028L219.143 397L182.226 380.816L185.893 373.547L212.855 374.335L225.982 380.028Z" fill="black"/>
<path id="Vector_14" d="M295.664 359.888L304.736 375.815L268.68 393.784L265.264 386.391L282.897 366.316L295.664 359.888Z" fill="black"/>
<path id="Vector_15" d="M311.537 99.5422C312.131 102.801 315.896 112.628 317.531 114.429C319.165 116.23 310.365 126.758 300.579 124.828C300.284 121.521 299.124 112.156 297.587 110.601C296.051 109.047 311.537 99.5422 311.537 99.5422Z" fill="#D38D6A"/>
<path id="Vector_16" d="M302.893 110.595C313.523 107.182 318.321 92.9019 313.61 78.6984C308.898 64.4948 296.462 55.7468 285.833 59.1592C275.203 62.5715 270.405 76.852 275.117 91.0555C279.828 105.259 292.264 114.007 302.893 110.595Z" fill="#E49D75"/>
<path id="Vector_17" d="M278.243 48.053C289.098 48.053 316.991 67.0244 316.991 86.1137C316.991 96.3579 315.149 98.9793 314.452 98.9793C313.754 98.9793 307.019 93.8384 307.019 90.1449C307.019 86.4514 305.695 80.9889 304.404 80.9889C302.224 80.9889 301.903 83.3744 296.421 83.3744C294.323 83.3744 290.384 80.9139 290.384 78.0888C285.932 78.1638 285.932 79.6112 279.823 79.6112C272.903 79.6112 255.902 76.1697 255.902 70.8841C255.902 67.3031 260.648 64.8372 265.324 65.711C262.158 64.0438 259.33 60.6023 259.33 58.324C259.33 55.1344 263.416 52.9312 266.582 52.9312C270.337 52.9312 273.573 54.4858 275.192 56.0082C273.9 53.8103 275.175 48.053 278.243 48.053Z" fill="#FD8369"/>
<path id="Vector_18" d="M303.538 91.8925C306.646 91.8925 309.166 89.4132 309.166 86.3549C309.166 83.2966 306.646 80.8174 303.538 80.8174C300.429 80.8174 297.909 83.2966 297.909 86.3549C297.909 89.4132 300.429 91.8925 303.538 91.8925Z" fill="#E49D75"/>
<path id="Vector_19" d="M282.591 210.084H0V217.879H282.591V210.084Z" fill="#A4A4A4"/>
<path id="Vector_20" d="M258.283 197.423H141.293H140.999H24.0084L0 210.015H140.999H141.293H282.297L258.283 197.423Z" fill="#E0E0E0"/>
<path id="Vector_21" d="M35.5875 217.873V381.352" stroke="#A4A4A4" stroke-width="3" stroke-linecap="round" stroke-linejoin="round"/>
<path id="Vector_22" d="M57.983 217.873V351.911" stroke="#A4A4A4" stroke-width="3" stroke-linecap="round" stroke-linejoin="round"/>
<path id="Vector_23" d="M247.004 217.873V381.352" stroke="#A4A4A4" stroke-width="3" stroke-linecap="round" stroke-linejoin="round"/>
<path id="Vector_24" d="M216.762 198.296H166.658V201.674H216.762V198.296Z" fill="#A4A4A4"/>
<path id="Vector_25" d="M113.552 194.094H103.962V205.324H113.552V194.094Z" fill="#A4A4A4"/>
<path id="Vector_26" d="M203.788 208.546C209.993 208.546 215.024 206.232 215.024 203.378C215.024 200.524 209.993 198.211 203.788 198.211C197.582 198.211 192.552 200.524 192.552 203.378C192.552 206.232 197.582 208.546 203.788 208.546Z" fill="#F2F2F2"/>
<path id="Vector_27" d="M283.491 165.891C281.856 167.644 271.852 181.796 270.773 183.292C247.887 185.919 217.645 193.139 216.533 193.177C215.421 193.214 202.703 189.162 200.998 189.457C199.292 189.751 195.805 195.766 195.952 197.004C196.099 198.243 206.115 204.193 217.645 204.043C219.824 203.898 220.538 202.73 222.799 202.73C225.061 202.73 276.745 206.659 285.714 202.049C290.591 199.535 304.295 180.574 304.295 179.153C304.295 177.733 283.491 165.891 283.491 165.891Z" fill="#E49D75"/>
<path id="Vector_28" d="M316.114 131.288C331.785 140.289 308.349 179.604 305.385 180.606C300.655 180.07 284.21 170.608 281.12 163.645C280.455 159.367 302.72 123.595 316.114 131.288Z" fill="#FFE4AD"/>
<path id="Vector_29" d="M100.425 54.7216H95.8318V200.194H100.425V54.7216Z" fill="#E0E0E0"/>
<path id="Vector_30" d="M100.42 54.7216V127.455V200.194L122.14 192.378V127.455V62.5321L100.42 54.7216Z" fill="#A4A4A4"/>
</g>
</g>
</g>
<defs>
<clipPath id="clip0">
<rect width="414" height="397" fill="white"/>
</clipPath>
</defs>
</svg>
