<svg width="395" height="406" viewBox="0 0 395 406" fill="none" xmlns="http://www.w3.org/2000/svg">
<g id="unlock 1" clip-path="url(#clip0)">
<g id="Layer 2">
<g id="vector">
<path id="Vector" d="M331.842 105.369C367.325 133.136 380.416 187.262 366.944 235.132C353.379 283.001 313.333 324.623 258.591 352.372C203.849 380.053 134.508 393.98 88.2015 372.229C41.8947 350.479 18.856 293.215 7.18284 237.029C-4.39125 180.838 -4.57894 125.801 26.254 98.9397C57.087 72.1685 118.868 73.486 178.714 74.8035C238.581 76.2025 296.452 77.6061 331.842 105.369Z" fill="#F1F1F1"/>
<path id="Vector_2" d="M302.845 388.605H291.334V395.279H302.845V388.605Z" fill="#E49D75"/>
<path id="Vector_3" d="M359.627 376.271L351.224 382.166L357.239 388.632L365.642 382.737L359.627 376.271Z" fill="#E49D75"/>
<path id="Vector_4" d="M310.504 116.072H309.977C307.608 116.072 305.687 117.74 305.687 119.798V121.713C305.687 123.771 307.608 125.439 309.977 125.439H310.504C312.874 125.439 314.795 123.771 314.795 121.713V119.798C314.795 117.74 312.874 116.072 310.504 116.072Z" fill="#E49D75"/>
<path id="Vector_5" d="M305.863 257.321C307.696 260.432 321.749 322.863 323.814 328.769C325.879 334.674 358.916 373.174 361.165 375.476C361.855 378.804 351.651 384.434 346.812 384.434C341.973 381.603 285.455 320.995 284.099 318.305C282.742 315.614 278.19 251.226 305.863 257.321Z" fill="#49CB65" fill-opacity="0.87"/>
<path id="Vector_6" d="M263.717 246.546C263.17 249.126 271.319 308.12 272.33 316.043C273.341 323.966 288.956 387.795 290.338 389.389C291.719 390.982 302.23 390.638 304.044 389.841C305.858 389.045 300.499 323.287 300.499 318.519C300.499 313.752 314.575 269.781 312.766 257.045C310.957 244.309 263.717 246.546 263.717 246.546Z" fill="#53E874" fill-opacity="0.97"/>
<path id="Vector_7" d="M303.674 175.034H292.668V191.668H303.674V175.034Z" fill="#E49D75"/>
<path id="Vector_8" d="M235.715 62.4118H61.2019C54.7464 62.4118 49.5131 66.9564 49.5131 72.5625V224.112C49.5131 229.718 54.7464 234.262 61.2019 234.262H235.715C242.171 234.262 247.404 229.718 247.404 224.112V72.5625C247.404 66.9564 242.171 62.4118 235.715 62.4118Z" fill="#E0E0E0"/>
<path id="Vector_9" d="M160.828 140.715C163.543 138.551 165.442 135.726 166.277 132.609C167.112 129.492 166.844 126.228 165.507 123.246C164.17 120.264 161.827 117.702 158.785 115.895C155.743 114.089 152.144 113.123 148.459 113.123C144.773 113.123 141.174 114.089 138.132 115.895C135.09 117.702 132.747 120.264 131.41 123.246C130.074 126.228 129.805 129.492 130.64 132.609C131.475 135.726 133.374 138.551 136.089 140.715L121.997 190.341H174.904L160.828 140.715Z" fill="#A4A4A4"/>
<path id="Vector_10" d="M84.9288 62.4118C85.0805 47.8664 91.8406 33.9615 103.738 23.7226C115.636 13.4837 131.708 7.7393 148.459 7.7393C165.209 7.7393 181.281 13.4837 193.179 23.7226C205.077 33.9615 211.837 47.8664 211.988 62.4118" stroke="#E0E0E0" stroke-width="32" stroke-linecap="round" stroke-linejoin="round"/>
<path id="Vector_11" d="M296.75 177.768C305.101 177.768 311.87 169.863 311.87 160.111C311.87 150.359 305.101 142.454 296.75 142.454C288.4 142.454 281.631 150.359 281.631 160.111C281.631 169.863 288.4 177.768 296.75 177.768Z" fill="#E49D75"/>
<path id="Vector_12" d="M294.691 188.24C276.36 188.24 260.021 232.402 263.159 247.057C264.088 251.386 307.954 260.119 314.659 258.897C317.042 256.081 326.765 188.24 294.691 188.24Z" fill="#FFD98E"/>
<path id="Vector_13" d="M289.989 212.838C298.195 207.668 285.077 182.613 282.012 182.183C276.366 181.39 262.325 190.785 262.769 194.733C263.003 196.815 281.631 218.104 289.989 212.838Z" fill="#FFE4AD"/>
<path id="Vector_14" d="M265.37 192.872C263.159 190.568 257.633 179.289 257.028 176.614C256.423 173.938 254.943 133.72 254.943 131.339C254.943 128.957 251.293 122.949 251.293 119.363C251.293 115.778 255.495 110.915 257.633 110.852C259.917 112.26 263.086 120.518 263.232 122.623C264.03 118.096 267.805 117.054 268.837 117.054C269.869 117.054 269.734 124.049 265.459 128.758C265.61 132.217 270.672 166.477 271.491 168.46C272.309 170.443 281.631 183.441 281.61 184.591C281.589 185.741 265.37 192.872 265.37 192.872Z" fill="#E49D75"/>
<path id="Vector_15" d="M378.099 128.859L193.115 106.911L192.393 111.5L377.377 133.448L378.099 128.859Z" fill="#A4A4A4"/>
<path id="Vector_16" d="M203.704 112.84L192.391 111.498L190.3 124.79L201.613 126.132L203.704 112.84Z" fill="#A4A4A4"/>
<path id="Vector_17" d="M214.6 114.135L208.515 113.413L206.423 126.705L212.508 127.427L214.6 114.135Z" fill="#A4A4A4"/>
<path id="Vector_18" d="M315.285 151.219C314.852 149.073 314.461 133.521 315.128 131.325C315.796 129.129 317.599 127.526 318.408 124.248C318.684 123.121 318.246 119.218 317.365 119.055C315.467 118.702 315.358 120.55 315.107 121.908C314.138 126.539 312.162 125.693 311.249 125.584C310.337 125.475 307.204 125.005 306.177 124.982C305.15 124.959 307.767 126.793 306.969 129.722C306.343 132.027 303.403 147.38 302.798 149.892C304.993 149.969 315.285 151.219 315.285 151.219Z" fill="#E49D75"/>
<path id="Vector_19" d="M224.984 115.363L218.899 114.641L216.808 127.932L222.893 128.654L224.984 115.363Z" fill="#A4A4A4"/>
<path id="Vector_20" d="M224.981 115.366L192.391 111.5L191.65 116.21L224.24 120.077L224.981 115.366Z" fill="#A4A4A4"/>
<path id="Vector_21" d="M383.035 119.563C380.324 119.242 377.565 119.626 375.106 120.667C372.646 121.708 370.598 123.359 369.218 125.41C367.839 127.462 367.191 129.823 367.356 132.194C367.521 134.565 368.492 136.841 370.146 138.733C371.8 140.626 374.063 142.05 376.649 142.826C379.234 143.602 382.027 143.695 384.673 143.093C387.32 142.491 389.701 141.221 391.517 139.444C393.333 137.667 394.501 135.462 394.875 133.109C395.123 131.544 395.014 129.952 394.553 128.424C394.092 126.896 393.289 125.462 392.189 124.204C391.089 122.946 389.715 121.888 388.144 121.092C386.573 120.295 384.837 119.776 383.035 119.563V119.563ZM390.495 132.575C390.243 134.178 389.449 135.68 388.213 136.892C386.978 138.103 385.356 138.969 383.554 139.38C381.751 139.791 379.849 139.728 378.088 139.2C376.326 138.672 374.785 137.703 373.658 136.414C372.531 135.125 371.87 133.575 371.758 131.959C371.645 130.344 372.087 128.736 373.027 127.339C373.967 125.942 375.364 124.818 377.039 124.11C378.715 123.402 380.594 123.141 382.441 123.361C384.915 123.656 387.154 124.792 388.665 126.52C390.175 128.247 390.834 130.425 390.495 132.575V132.575Z" fill="#A4A4A4"/>
<path id="Vector_22" d="M265.516 128.722C264.828 126.381 263.488 124.335 263.269 122.573V122.628C263.123 120.518 259.953 112.26 257.67 110.856C255.532 110.92 251.33 115.782 251.33 119.368C251.33 121.998 253.311 125.933 254.364 128.781H265.495L265.516 128.722Z" fill="#E49D75"/>
<path id="Vector_23" d="M283.127 149.05C283.127 155.158 288.091 158.925 295.958 161.025C295.958 169.383 297.444 169.75 297.444 174.839C297.444 185.805 295.291 180.322 295.291 199.256C295.291 210.674 300.796 216.886 310.931 216.886C323.188 216.886 330.221 205.626 330.221 199.559C330.221 191.862 321.452 178.488 320.837 167.382C319.987 152.441 314.638 139.941 301.224 139.941C289.764 139.941 283.127 143.644 283.127 149.05Z" fill="black"/>
<path id="Vector_24" d="M296.735 165.988C298.981 165.988 300.801 164.407 300.801 162.456C300.801 160.506 298.981 158.925 296.735 158.925C294.489 158.925 292.668 160.506 292.668 162.456C292.668 164.407 294.489 165.988 296.735 165.988Z" fill="#E49D75"/>
<path id="Vector_25" fill-rule="evenodd" clip-rule="evenodd" d="M365.622 381.438L372.139 389.162L358.505 405.914L345.638 405.986L345.805 400.323L350.972 398.339L355.565 388.497L365.622 381.438Z" fill="black"/>
<path id="Vector_26" d="M303.617 394.722V406H265.443V401.006L290.63 394.722H303.617Z" fill="black"/>
</g>
</g>
</g>
<defs>
<clipPath id="clip0">
<rect width="395" height="406" fill="white"/>
</clipPath>
</defs>
</svg>
